<svg id="eJ2iQ9DYnor1" xmlns="http://www.w3.org/2000/svg" xmlns:xlink="http://www.w3.org/1999/xlink" viewBox="0 0 131 50" shape-rendering="geometricPrecision" text-rendering="geometricPrecision"><g transform="matrix(2.012689 0 0 2.012689-19.020892-141.388981)"><g transform="matrix(.962561-.271066 0.271066 0.962561 29.179886 7.358707)"><line x1="0" y1="-12.5" x2="0" y2="12.5" transform="matrix(-1 0.00043 0.000405 0.942954 15.460737 82.669976)" fill="none" stroke="#323232" stroke-width="9"/><line x1="-2.599507" y1="0" x2="2.599507" y2="0" transform="translate(15.729073 74.45109)" fill="none" stroke="#6cc4a1" stroke-width="2.56"/><line x1="-2.599507" y1="0" x2="2.599507" y2="0" transform="translate(15.729073 78.315221)" fill="none" stroke="#6cc4a1" stroke-width="2.56"/><ellipse rx="0.698755" ry="0.703157" transform="translate(15.729073 81.701468)" fill="#fff" stroke-width="0"/><ellipse rx="0.698755" ry="0.703157" transform="translate(15.729073 84.595523)" fill="#fff" stroke-width="0"/><ellipse rx="0.698755" ry="0.703157" transform="translate(15.729073 87.521264)" fill="#fff" stroke-width="0"/><ellipse rx="0.698755" ry="0.703157" transform="translate(15.729073 90.926383)" fill="#fff" stroke-width="0"/></g><g transform="translate(-1 0)"><g><line x1="0" y1="-12.5" x2="0" y2="12.5" transform="matrix(-1 0.00043 0.000405 0.942954 36.792766 82.669976)" fill="none" stroke="#323232" stroke-width="2"/><line x1="0" y1="-12.5" x2="0" y2="12.5" transform="matrix(-1 0.00043 0.000405 0.942954 33.792766 82.669976)" fill="none" stroke="#323232" stroke-width="2"/><line x1="0" y1="-12.5" x2="0" y2="12.5" transform="matrix(-1 0.00043 0.000405 0.942954 28.319288 82.669976)" fill="none" stroke="#323232" stroke-width="2"/><line x1="0" y1="-12.5" x2="0" y2="12.5" transform="matrix(-1 0.00043 0.000405 0.942954 31.329416 82.669976)" fill="none" stroke="#323232" stroke-width="2"/><line x1="0" y1="-12.5" x2="0" y2="12.5" transform="matrix(-1 0.00043 0.000405 0.942954 23.894641 82.669976)" fill="none" stroke="#323232" stroke-width="4"/><line x1="0" y1="-12.5" x2="0" y2="12.5" transform="matrix(-1 0.00043 0.000405 0.942954 41.632734 82.669976)" fill="none" stroke="#323232" stroke-width="4"/></g><line x1="-0.005064" y1="-9.714575" x2="0.005064" y2="9.714575" transform="translate(23.894641 82.603968)" fill="none" stroke="#6cc4a1" stroke-width="2.56"/></g><g transform="translate(16 0)"><g><line x1="0" y1="-12.5" x2="0" y2="12.5" transform="matrix(-1 0.00043 0.000405 0.942954 36.792766 82.669976)" fill="none" stroke="#323232" stroke-width="2"/><line x1="0" y1="-12.5" x2="0" y2="12.5" transform="matrix(-1 0.00043 0.000405 0.942954 33.792766 82.669976)" fill="none" stroke="#323232" stroke-width="2"/><line x1="0" y1="-12.5" x2="0" y2="12.5" transform="matrix(-1 0.00043 0.000405 0.942954 28.319288 82.669976)" fill="none" stroke="#323232" stroke-width="2"/><line x1="0" y1="-12.5" x2="0" y2="12.5" transform="matrix(-1 0.00043 0.000405 0.942954 31.329416 82.669976)" fill="none" stroke="#323232" stroke-width="2"/><line x1="0" y1="-12.5" x2="0" y2="12.5" transform="matrix(-1 0.00043 0.000405 0.942954 23.894641 82.669976)" fill="none" stroke="#323232" stroke-width="4"/><line x1="0" y1="-12.5" x2="0" y2="12.5" transform="matrix(-1 0.00043 0.000405 0.942954 41.632734 82.669976)" fill="none" stroke="#323232" stroke-width="4"/></g><line x1="-0.005064" y1="-9.714575" x2="0.005064" y2="9.714575" transform="translate(23.894641 82.603968)" fill="none" stroke="#6cc4a1" stroke-width="2.56"/></g><g transform="translate(-1 0)"><line x1="0" y1="-12.5" x2="0" y2="12.5" transform="matrix(-1 0.00043 0.000405 0.942954 15.460737 82.669976)" fill="none" stroke="#323232" stroke-width="9"/><line x1="-2.599507" y1="0" x2="2.599507" y2="0" transform="translate(15.729073 74.45109)" fill="none" stroke="#6cc4a1" stroke-width="2.56"/><line x1="-2.599507" y1="0" x2="2.599507" y2="0" transform="translate(15.729073 78.315221)" fill="none" stroke="#6cc4a1" stroke-width="2.56"/><ellipse rx="0.698755" ry="0.703157" transform="translate(15.729073 81.701468)" fill="#fff" stroke-width="0"/><ellipse rx="0.698755" ry="0.703157" transform="translate(15.729073 84.595523)" fill="#fff" stroke-width="0"/><ellipse rx="0.698755" ry="0.703157" transform="translate(15.729073 87.521264)" fill="#fff" stroke-width="0"/><ellipse rx="0.698755" ry="0.703157" transform="translate(15.729073 90.926383)" fill="#fff" stroke-width="0"/></g></g></svg>
